<?xml version="1.0" encoding="utf-8"?>
<!-- Generator: Adobe Illustrator 22.1.0, SVG Export Plug-In . SVG Version: 6.00 Build 0)  -->
<svg version="1.1" id="Layer_1" xmlns="http://www.w3.org/2000/svg" xmlns:xlink="http://www.w3.org/1999/xlink" x="0px" y="0px"
	 viewBox="0 0 1280 1024" style="enable-background:new 0 0 1280 1024;" xml:space="preserve">
<style type="text/css">
	.st0{fill:#FFFFFF;}
</style>
<g>
	<g>
		<path class="st0" d="M179.4,1037.1c0-345.6,0-691.2,0-1036.9c315.1,0,630.2,0,945.3,0c0,345.6,0,691.2,0,1036.9
			C809.4,1037.1,494.3,1037.1,179.4,1037.1z M795.2,543.5c-2.8-2.4-5.7-4.8-8.7-7.2c12.1-13,25-25.3,35.9-39
			c18.5-23.5,36.5-47.5,52.6-72.6c3.9-6-0.7-17.3-1.3-26.2c-7.9,1.2-18.7-0.3-23.2,4.3c-32.7,34.2-72,58.4-113.4,80.7
			c-29,15.5-51.1,42.3-54.9,73.5c-6.4,54.6-4.9,110.2-5.7,165.3c0,5.2,8.2,14.8,13.2,15.1c25.4,1.5,50.8,0.7,79.2,0.7
			c-1.8-15.4-3.4-27.8-4.6-40.2c-2.8-30.2-8.2-61.3,22.4-82.5c20-13.9,40.2-27.7,59.9-41.9c30.8-22,58.3-46.6,67.4-85.6
			c4.2-18.4,10.8-36.9,10.5-55.3c-0.7-45-3.4-90.1-8.2-135c-1.8-16.6-23.2-22.7-35-13.3c-13.2,10.6-18.7,90.1-7.2,101.8
			c17.3,17.5,19,33.6,5.2,54.3c-10.6,15.7-20.3,32-32.4,46.5C830.8,506.4,812.5,524.7,795.2,543.5z M521.7,537.1
			c-1.5,1.5-3,3-4.5,4.5c-4.5-2.4-10.3-3.7-13.3-7.3c-26.6-33.3-54-66.1-78.2-101.2c-9.7-14.1-12.1-33.3,7.2-46.3
			c3.3-2.2,6.6-7.2,6.4-10.8c-1-26.2-1.5-52.5-5.1-78.3c-2.2-16.3-15.4-24.1-29.4-13.3c-8.7,6.6-16.9,19.6-17.3,30
			c-1.8,45.9-3,91.9,0,137.7c2.7,40.2,17.2,77.3,50.7,103.4c18.7,14.5,36.8,30.3,57.4,41.6c45,24.4,61.4,58.7,46.2,108.4
			c-2.8,9.3-0.4,20.3-0.4,32.7c23.5,0,45-1,66.5,0.3c18.7,1.2,26.2-4.6,25.1-24.4c-2.5-47.1-3.6-94.2-5.1-141.3
			c-1-32-15.7-57.2-40.5-76.2c-43.2-33-95.4-53.5-131.7-96.1c-3.1-3.7-13.8-4.5-19-2.1c-3.7,1.6-6.3,10.8-5.8,16.3
			c0.4,6.7,3,14.3,7.2,19.6c20.9,26.8,42.7,52.9,64.3,79.2C508.5,521.4,515.1,529.2,521.7,537.1z M663.7,251.6
			c35.6,10.2,54.7,1.6,64.4-29.6c-8.4,0-16.4,1.3-23.9-0.3c-22-4.5-46.8,14.2-66.8-8.5c-1.6-1.9-11.7,1.9-16.4,5.1
			c-1.5,1-0.1,11.5,2.5,12.9c21.1,11.5,12.7,29.9,13.6,47.8c-5.4,0.3-9.4,1.2-13,0.4c-46.8-9.4-75.2,18.7-63.7,64.6
			c6.1,24.4,13,48.7,23,71.6c4.9,11.2,16.6,23.2,28,27.2c13.8,4.8,30.5-0.4,45.6,1.8c28,4,43.9-4.3,53.4-31.5
			c6.7-19.3,12.9-38.7,19.4-58.1c17.2-50.8-11.4-95.5-66.4-75.5c-1.2,0.4-2.8-0.9-5.5-1.8C659.6,269.1,661.6,260.4,663.7,251.6z
			 M457.1,322.1c-2.7,0.7-5.5,1.6-8.2,2.4c6.4,24.5-14.3,57.1,29.4,75.9C470.2,370.9,463.7,346.5,457.1,322.1z M860.1,325.1
			c-3.1-1-6.3-2.1-9.4-3.1c-6,24.7-12.1,49.2-19.3,78.3C874.4,381.3,853.3,349.3,860.1,325.1z"/>
		<path d="M795.2,543.5c17.3-18.8,35.6-36.9,52-56.6c12.1-14.5,21.8-30.8,32.4-46.5c13.9-20.6,12.3-36.8-5.2-54.3
			c-11.7-11.7-6-91.2,7.2-101.8c11.8-9.4,33.2-3.3,35,13.3c4.8,44.7,7.5,89.8,8.2,135c0.3,18.4-6.3,37.1-10.5,55.3
			c-9,39-36.6,63.7-67.4,85.6c-19.9,14.2-39.9,28-59.9,41.9c-30.6,21.2-25.3,52.2-22.4,82.5c1.2,12.4,2.8,24.8,4.6,40.2
			c-28.4,0-53.8,0.7-79.2-0.7c-4.9-0.3-13.2-9.9-13.2-15.1c0.6-55.2-0.7-110.6,5.7-165.3c3.7-31.2,25.7-58,54.9-73.5
			c41.4-22.1,80.7-46.3,113.4-80.7c4.3-4.6,15.2-3,23.2-4.3c0.7,8.8,5.2,20.2,1.3,26.2c-16.1,25.1-34.2,49-52.6,72.6
			c-10.9,13.9-23.9,26.2-35.9,39C789.4,538.7,792.3,541.1,795.2,543.5z"/>
		<path d="M521.7,537.1c-6.6-7.8-13.2-15.7-19.6-23.5c-21.5-26.3-43.3-52.5-64.3-79.2c-4.2-5.2-6.7-12.9-7.2-19.6
			c-0.3-5.5,2.1-14.6,5.8-16.3c5.2-2.2,15.8-1.6,19,2.1c36.5,42.6,88.6,63.1,131.7,96.1c24.8,19,39.5,44.1,40.5,76.2
			c1.6,47.1,2.5,94.3,5.1,141.3c1,19.7-6.4,25.6-25.1,24.4c-21.4-1.3-43-0.3-66.5-0.3c0-12.4-2.4-23.3,0.4-32.7
			c15.1-49.6-1.2-84-46.2-108.4c-20.6-11.2-38.9-26.9-57.4-41.6c-33.5-26.2-48-63.2-50.7-103.4c-3-45.7-1.8-91.9,0-137.7
			c0.4-10.5,8.7-23.5,17.3-30c14.2-10.8,27.2-3,29.4,13.3c3.6,25.9,4,52.2,5.1,78.3c0.1,3.6-3.3,8.5-6.4,10.8
			c-19.3,13-16.9,32.3-7.2,46.3c24.1,35,51.6,67.9,78.2,101.2c2.8,3.6,8.8,4.9,13.3,7.3C518.5,539.9,520,538.4,521.7,537.1z"/>
		<path d="M663.7,251.6c-1.9,8.8-4,17.5-6,26.2c2.7,0.9,4.3,2.1,5.5,1.8c55-20,83.6,24.7,66.4,75.5c-6.6,19.3-12.7,38.9-19.4,58.1
			c-9.4,27.2-25.4,35.4-53.4,31.5c-15.1-2.1-31.8,3-45.6-1.8c-11.4-3.9-22.9-15.8-28-27.2c-10.2-22.9-16.9-47.2-23-71.6
			c-11.5-45.9,16.9-74,63.7-64.6c3.6,0.7,7.6-0.3,13-0.4c-1-17.9,7.5-36.3-13.6-47.8c-2.7-1.5-4-11.8-2.5-12.9
			c4.8-3.3,14.8-7,16.4-5.1c20,22.9,44.8,4,66.8,8.5c7.5,1.5,15.5,0.3,23.9,0.3C718.4,253.4,699.2,261.9,663.7,251.6z"/>
		<path d="M457.1,322.1c6.6,24.4,13.2,48.7,21.2,78.3c-43.8-18.8-23.2-51.6-29.4-75.9C451.6,323.6,454.2,322.9,457.1,322.1z"/>
		<path d="M860.1,325.1c-6.7,24.2,14.2,56.2-28.7,75.2c7.2-29.1,13.2-53.7,19.3-78.3C853.8,323,856.9,324.1,860.1,325.1z"/>
	</g>
</g>
</svg>
